<?xml version="1.0" encoding="UTF-8"?>
<svg width="599px" height="166px" viewBox="0 0 599 166" version="1.1" xmlns="http://www.w3.org/2000/svg" xmlns:xlink="http://www.w3.org/1999/xlink">
    <!-- Generator: Sketch 58 (84663) - https://sketch.com -->
    <title>Artboard</title>
    <desc>Created with Sketch.</desc>
    <g id="Artboard" stroke="none" stroke-width="1" fill="none" fill-rule="evenodd">
        <g id="Preqin-Pro-Logo-on-Light-Copy" transform="translate(10.000000, 10.000000)">
            <g id="Logo-/-Light">
                <g id="Group">
                    <g transform="translate(253.829975, 9.398787)" fill="#FFFFFF" fill-rule="nonzero">
                        <g transform="translate(0.000000, 21.147271)">
                            <path d="M106.516566,57.410923 C101.301932,66.2614473 91.7928941,72.1356891 80.9801973,72.1356891 C66.2565251,72.1356891 54.063484,61.248761 51.5328529,46.9156111 L110.427542,46.9156111 C110.427542,46.9156111 110.427542,46.9156111 110.427542,46.9156111 L120.780124,46.9156111 C121.010181,45.1925002 121.163552,43.391066 121.163552,41.5113086 C121.163552,18.8758969 103.219077,0.548262566 81.0568831,0.548262566 C58.894689,0.548262566 40.9502134,18.8758969 40.9502134,41.5113086 C40.9502134,64.1467203 58.894689,82.4743546 81.0568831,82.4743546 C97.6977002,82.4743546 112.037943,72.0573659 118.096121,57.2542765 L106.516566,57.2542765 L106.516566,57.410923 Z M80.9035116,11.1218978 C95.7038696,11.1218978 108.050282,22.1654723 110.350856,36.5769455 L51.3794813,36.5769455 C53.8334266,22.0871491 66.1031535,11.1218978 80.9035116,11.1218978 Z" id="Shape"></path>
                            <path d="M210.272444,41.5113086 C210.195759,18.9542202 192.251282,0.704909015 170.165775,0.704909015 C148.00358,0.704909015 130.059105,19.0325434 130.059105,41.6679551 C130.059105,64.3033668 148.00358,82.6310011 170.165775,82.6310011 C182.052072,82.6310011 192.711398,77.3050219 200.073234,68.9244369 L200.073234,113.490351 L210.272444,113.490351 L210.272444,41.5113086 Z M170.165775,72.2140124 C153.678329,72.2140124 140.258315,58.5074482 140.258315,41.6679551 C140.258315,24.8284619 153.678329,11.1218978 170.165775,11.1218978 C186.65322,11.1218978 200.073234,24.8284619 200.073234,41.6679551 C200.073234,58.5074482 186.65322,72.2140124 170.165775,72.2140124 Z" id="Shape"></path>
                            <path d="M324.917705,41.5113086 C324.841019,18.9542202 306.896543,0.704909015 284.811035,0.704909015 C262.64884,0.704909015 244.704365,19.0325434 244.704365,41.6679551 C244.704365,41.7462783 244.704365,41.8246016 244.704365,41.9029247 L244.704365,82.7093243 L254.903576,82.7093243 L254.903576,41.5896319 C254.903576,24.7501388 268.32359,11.0435746 284.811035,11.0435746 C301.29848,11.0435746 314.718495,24.7501388 314.718495,41.5896319 C314.718495,41.5896319 314.718495,41.6679551 314.718495,41.6679551 L314.718495,68.9244369 C314.718495,68.9244369 314.718495,68.9244369 314.718495,68.9244369 L314.718495,82.6310011 L324.917705,82.6310011 L324.917705,41.5113086 Z" id="Shape"></path>
                            <path d="M40.720156,0.704909015 C18.5579619,0.704909015 0.613486344,19.0325434 0.613486344,41.6679551 C0.613486344,41.6679551 0.613486344,41.6679551 0.613486344,41.6679551 L0.613486344,82.7093243 L10.8126968,82.7093243 L10.8126968,41.5896319 C10.8126968,24.7501388 24.2327106,11.0435746 40.720156,11.0435746 C40.7968419,11.0435746 40.7968419,11.0435746 40.8735276,11.0435746 L40.8735276,0.62658579 C40.8735276,0.704909015 40.7968419,0.704909015 40.720156,0.704909015 Z" id="Shape"></path>
                            <polygon id="Rectangle-path" points="222.465485 0.861555461 232.664695 0.861555461 232.664695 82.7093243 222.465485 82.7093243"></polygon>
                        </g>
                        <polygon id="Rectangle-path" points="222.465485 0.156646448 232.664695 0.156646448 232.664695 10.5736352 222.465485 10.5736352"></polygon>
                    </g>
                    <path d="M204.367639,31.2509663 C182.205445,31.2509663 164.260968,49.5786007 164.260968,72.2140124 C164.260968,72.8405981 164.260968,73.3888608 164.337654,73.9371233 L164.337654,144.036409 L174.536864,144.036409 L174.536864,99.5488174 C181.8987,107.929402 192.558026,113.177058 204.367639,113.177058 C226.529833,113.177058 244.474308,94.8494241 244.474308,72.2140124 C244.474308,49.5786007 226.529833,31.2509663 204.367639,31.2509663 Z M204.367639,102.76007 C187.880193,102.76007 174.460179,89.0535054 174.460179,72.2140124 C174.460179,55.3745193 187.880193,41.6679551 204.367639,41.6679551 C220.855083,41.6679551 234.275098,55.3745193 234.275098,72.2140124 C234.275098,89.0535054 220.855083,102.76007 204.367639,102.76007 Z" id="Shape" fill="#FFFFFF" fill-rule="nonzero"></path>
                    <g id="Shape">
                        <path d="M70.8576726,41.5896319 C54.3702272,41.5896319 41.0268993,55.2178728 41.0268993,72.0573659 C41.0268993,88.896859 54.3702272,102.5251 70.8576726,102.5251 L98.5412439,102.5251 L100.688446,102.5251 L100.688446,96.259242 L100.688446,72.4489821 C100.688446,72.2923356 100.688446,72.1356891 100.688446,71.9790427 C100.688446,55.2178728 87.3451182,41.5896319 70.8576726,41.5896319 Z"></path>
                        <path d="M110.964342,72.4489821 L110.964342,96.3375653 L110.964342,102.603423 L130.825962,102.603423 L130.825962,72.2140124 C130.825962,38.3783796 103.985935,10.9652513 70.8576726,10.9652513 C37.7294101,10.9652513 10.8893826,38.3783796 10.8893826,72.2140124 C10.8893826,106.049645 37.7294101,133.462774 70.8576726,133.462774 L100.688446,133.462774 L100.688446,113.098735 L98.5412439,113.098735 L70.8576726,113.098735 C48.6954785,113.098735 30.751003,94.7711008 30.751003,72.1356891 C30.751003,49.5002774 48.6954785,31.172643 70.8576726,31.172643 C93.0198668,31.172643 110.964342,49.5002774 110.964342,72.1356891 C110.964342,72.2140124 110.964342,72.3706588 110.964342,72.4489821 Z"></path>
                        <path d="M110.964342,113.098735 L130.825962,113.098735 L141.101859,113.098735 L141.101859,72.4489821 C141.101859,72.3706588 141.101859,72.2923356 141.101859,72.2140124 C141.101859,32.5824611 109.660684,0.469939343 70.8576726,0.469939343 C32.0546614,0.469939343 0.613486344,32.5824611 0.613486344,72.2140124 C0.613486344,111.845564 32.0546614,143.958085 70.8576726,143.958085 C70.9343585,143.958085 71.0110442,143.958085 71.08773,143.958085 L110.964342,143.958085 L110.964342,133.462774 L110.964342,113.098735 Z M100.688446,72.5273052 L100.688446,96.3375653 L100.688446,102.603423 L98.5412439,102.603423 L70.8576726,102.603423 C54.3702272,102.603423 41.0268993,88.9751822 41.0268993,72.1356891 C41.0268993,55.2961961 54.3702272,41.6679551 70.8576726,41.6679551 C87.3451182,41.6679551 100.688446,55.2961961 100.688446,72.1356891 C100.688446,72.2140124 100.688446,72.3706588 100.688446,72.5273052 Z M70.8576726,31.0943198 C48.6954785,31.0943198 30.751003,49.4219542 30.751003,72.0573659 C30.751003,94.6927776 48.6954785,113.020412 70.8576726,113.020412 L98.5412439,113.020412 L100.688446,113.020412 L100.688446,133.38445 L70.8576726,133.38445 C37.7294101,133.38445 10.8893826,105.971322 10.8893826,72.1356891 C10.8893826,38.3000564 37.7294101,10.8869281 70.8576726,10.8869281 C103.985935,10.8869281 130.825962,38.3000564 130.825962,72.1356891 L130.825962,102.603423 L110.964342,102.603423 L110.964342,96.3375653 L110.964342,72.4489821 C110.964342,72.2923356 110.964342,72.2140124 110.964342,72.0573659 C110.964342,49.4219542 93.0198668,31.0943198 70.8576726,31.0943198 Z" fill="#199AD6" fill-rule="nonzero"></path>
                    </g>
                </g>
            </g>
        </g>
    </g>
</svg>